<svg width="120" height="120" viewBox="0 0 120 120" fill="none" xmlns="http://www.w3.org/2000/svg">
<path d="M108.751 104.999C-25.0619 104.999 133.732 104.999 0 104.999C3.61512 75.7864 7.63106 46.1192 11.25 16.875C144.981 16.875 -13.7635 16.875 120 16.875C116.386 46.078 112.369 75.766 108.751 104.999Z" fill="#E6007E"/>
<path d="M29.7758 46.335H58.5186L54.9927 74.8274H26.25L29.7758 46.335Z" fill="white"/>
<path d="M40.5774 54.3711H53.1075L51.5707 66.7904H39.0405L40.5774 54.3711Z" fill="black"/>
<path d="M65.8813 46.335H94.6241L91.0981 74.8274H62.3555L65.8813 46.335Z" fill="white"/>
<path d="M76.6829 54.3711H89.2129L87.6762 66.7904H75.146L76.6829 54.3711Z" fill="black"/>
</svg>
