<svg width="48" height="48" viewBox="0 0 48 48" fill="none" xmlns="http://www.w3.org/2000/svg">
<path d="M24.1871 28.6234H21.3593C21.1944 28.624 21.0374 28.5591 20.9268 28.4441C20.8161 28.3292 20.7624 28.1752 20.7786 28.0201L21.0285 25.3322C21.053 25.0468 21.3055 24.8268 21.6092 24.8273H24.437C24.6019 24.8268 24.7589 24.8917 24.8695 25.0066C24.9801 25.1216 25.0339 25.2756 25.0177 25.4307L24.7678 28.1185C24.7433 28.4045 24.4902 28.6245 24.1871 28.6234ZM24.64 23.361H21.7594C21.4412 23.361 21.1835 23.0992 21.1835 22.7764L21.9671 13.6953C22.0021 13.4 22.2504 13.1789 22.5431 13.1805H25.4236C25.7419 13.1805 25.9996 13.4423 25.9996 13.7652L25.193 22.8523C25.1565 23.1361 24.9222 23.3517 24.64 23.361ZM41.5776 12.7713C41.8844 13.1464 42.0341 13.6348 41.9934 14.1271L40.867 27.618C40.831 28.0591 40.6442 28.4722 40.3411 28.7807L31.134 38.1494C30.8053 38.4827 30.3655 38.6686 29.9079 38.6675H20.1066L11.4781 47L12.1465 38.662H7.75865C7.2656 38.6625 6.79552 38.4459 6.46213 38.0658C6.12874 37.6852 5.96387 37.1759 6.00665 36.6617L8.68421 4.6533C8.77655 3.71281 9.53359 2.99781 10.4362 3.00001H32.7806C33.2945 3.00001 33.7829 3.23541 34.1168 3.64461L41.5776 12.7713ZM34.7538 25.044L35.4691 16.717C35.4968 16.2231 35.334 15.7386 35.0168 15.3723L30.8079 10.2798C30.4745 9.87775 29.9909 9.6462 29.4822 9.6462H16.2238C15.3212 9.644 14.5637 10.359 14.4718 11.2995L12.8936 30.0369C12.8571 30.5495 13.0245 31.055 13.3564 31.4339C13.6882 31.8129 14.1546 32.0312 14.6456 32.0373H27.6827C28.1351 32.0384 28.5702 31.8569 28.8978 31.5302L34.2274 26.2122C34.5321 25.9026 34.7189 25.4873 34.7538 25.044Z" fill="url(#paint0_linear_867_1356)"/>
<defs>
<linearGradient id="paint0_linear_867_1356" x1="34.4219" y1="0.30044" x2="0.401619" y2="37.7177" gradientUnits="userSpaceOnUse">
<stop stop-color="#F59C07"/>
<stop offset="1" stop-color="#F57507"/>
</linearGradient>
</defs>
</svg>
