<svg width="49" height="48" viewBox="0 0 49 48" fill="none" xmlns="http://www.w3.org/2000/svg">
<path d="M44.3086 4L27.1401 16.7513L30.315 9.2282L44.3086 4Z" fill="#E2761B" stroke="#E2761B" stroke-linecap="round" stroke-linejoin="round"/>
<path d="M4.67336 4L21.7038 16.8721L18.6843 9.2282L4.67336 4Z" fill="#E4761B" stroke="#E4761B" stroke-linecap="round" stroke-linejoin="round"/>
<path d="M38.1304 33.5576L33.5579 40.5631L43.3413 43.2548L46.1539 33.7129L38.1304 33.5576Z" fill="#E4761B" stroke="#E4761B" stroke-linecap="round" stroke-linejoin="round"/>
<path d="M2.86168 33.7129L5.65696 43.2548L15.4404 40.5631L10.8679 33.5576L2.86168 33.7129Z" fill="#E4761B" stroke="#E4761B" stroke-linecap="round" stroke-linejoin="round"/>
<path d="M14.8877 21.7208L12.1614 25.8447L21.8759 26.2761L21.5308 15.8369L14.8877 21.7208Z" fill="#E4761B" stroke="#E4761B" stroke-linecap="round" stroke-linejoin="round"/>
<path d="M34.0937 21.7205L27.3643 15.7158L27.14 26.2758L36.8372 25.8444L34.0937 21.7205Z" fill="#E4761B" stroke="#E4761B" stroke-linecap="round" stroke-linejoin="round"/>
<path d="M15.4405 40.5629L21.2727 37.7158L16.2343 33.7817L15.4405 40.5629Z" fill="#E4761B" stroke="#E4761B" stroke-linecap="round" stroke-linejoin="round"/>
<path d="M27.7091 37.7158L33.5585 40.5629L32.7475 33.7817L27.7091 37.7158Z" fill="#E4761B" stroke="#E4761B" stroke-linecap="round" stroke-linejoin="round"/>
<path d="M33.5587 40.5629L27.7094 37.7158L28.1752 41.5291L28.1235 43.1338L33.5587 40.5629Z" fill="#D7C1B3" stroke="#D7C1B3" stroke-linecap="round" stroke-linejoin="round"/>
<path d="M15.4406 40.5629L20.8759 43.1338L20.8414 41.5291L21.2727 37.7158L15.4406 40.5629Z" fill="#D7C1B3" stroke="#D7C1B3" stroke-linecap="round" stroke-linejoin="round"/>
<path d="M20.9625 31.2626L16.0966 29.8304L19.5303 28.2603L20.9625 31.2626Z" fill="#233447" stroke="#233447" stroke-linecap="round" stroke-linejoin="round"/>
<path d="M28.0195 31.2626L29.4516 28.2603L32.9026 29.8304L28.0195 31.2626Z" fill="#233447" stroke="#233447" stroke-linecap="round" stroke-linejoin="round"/>
<path d="M15.4402 40.5631L16.2684 33.5576L10.8677 33.7129L15.4402 40.5631Z" fill="#CD6116" stroke="#CD6116" stroke-linecap="round" stroke-linejoin="round"/>
<path d="M32.7298 33.5576L33.558 40.5631L38.1305 33.7129L32.7298 33.5576Z" fill="#CD6116" stroke="#CD6116" stroke-linecap="round" stroke-linejoin="round"/>
<path d="M36.8375 25.8447L27.1403 26.2761L28.0376 31.2627L29.4697 28.2604L32.9207 29.8306L36.8375 25.8447Z" fill="#CD6116" stroke="#CD6116" stroke-linecap="round" stroke-linejoin="round"/>
<path d="M16.0958 29.8306L19.5468 28.2604L20.9617 31.2627L21.8762 26.2761L12.1617 25.8447L16.0958 29.8306Z" fill="#CD6116" stroke="#CD6116" stroke-linecap="round" stroke-linejoin="round"/>
<path d="M12.1615 25.8447L16.2336 33.7819L16.0956 29.8306L12.1615 25.8447Z" fill="#E4751F" stroke="#E4751F" stroke-linecap="round" stroke-linejoin="round"/>
<path d="M32.9199 29.8306L32.7474 33.7819L36.8368 25.8447L32.9199 29.8306Z" fill="#E4751F" stroke="#E4751F" stroke-linecap="round" stroke-linejoin="round"/>
<path d="M21.8765 26.2764L20.9619 31.263L22.1008 37.1469L22.3596 29.3995L21.8765 26.2764Z" fill="#E4751F" stroke="#E4751F" stroke-linecap="round" stroke-linejoin="round"/>
<path d="M27.1397 26.2764L26.6738 29.3822L26.8809 37.1469L28.0369 31.263L27.1397 26.2764Z" fill="#E4751F" stroke="#E4751F" stroke-linecap="round" stroke-linejoin="round"/>
<path d="M28.0368 31.2627L26.8808 37.1466L27.709 37.716L32.7474 33.7819L32.92 29.8306L28.0368 31.2627Z" fill="#F6851B" stroke="#F6851B" stroke-linecap="round" stroke-linejoin="round"/>
<path d="M16.0966 29.8306L16.2347 33.7819L21.2731 37.716L22.1013 37.1466L20.9625 31.2627L16.0966 29.8306Z" fill="#F6851B" stroke="#F6851B" stroke-linecap="round" stroke-linejoin="round"/>
<path d="M28.1229 43.134L28.1746 41.5293L27.7433 41.1497H21.2382L20.8414 41.5293L20.8759 43.134L15.4406 40.563L17.3386 42.1159L21.1864 44.7904H27.795L31.6601 42.1159L33.5581 40.563L28.1229 43.134Z" fill="#C0AD9E" stroke="#C0AD9E" stroke-linecap="round" stroke-linejoin="round"/>
<path d="M27.7086 37.7159L26.8804 37.1465H22.1008L21.2725 37.7159L20.8412 41.5292L21.238 41.1496H27.7431L28.1745 41.5292L27.7086 37.7159Z" fill="#161616" stroke="#161616" stroke-linecap="round" stroke-linejoin="round"/>
<path d="M45.033 17.5795L46.4996 10.5396L44.3083 4L27.7092 16.3199L34.0935 21.7207L43.1177 24.3607L45.1193 22.0313L44.2565 21.4101L45.6369 20.1505L44.5671 19.3223L45.9475 18.2697L45.033 17.5795Z" fill="#763D16" stroke="#763D16" stroke-linecap="round" stroke-linejoin="round"/>
<path d="M2.49951 10.5396L3.96617 17.5795L3.03441 18.2697L4.41479 19.3223L3.36225 20.1505L4.74264 21.4101L3.8799 22.0313L5.8642 24.3607L14.8885 21.7207L21.2727 16.3199L4.67362 4L2.49951 10.5396Z" fill="#763D16" stroke="#763D16" stroke-linecap="round" stroke-linejoin="round"/>
<path d="M43.1176 24.3607L34.0934 21.7207L36.8369 25.8446L32.7475 33.7818L38.131 33.7128H46.1545L43.1176 24.3607Z" fill="#F6851B" stroke="#F6851B" stroke-linecap="round" stroke-linejoin="round"/>
<path d="M14.8883 21.7207L5.86408 24.3607L2.86175 33.7128H10.868L16.2342 33.7818L12.1621 25.8446L14.8883 21.7207Z" fill="#F6851B" stroke="#F6851B" stroke-linecap="round" stroke-linejoin="round"/>
<path d="M27.1396 26.2758L27.709 16.3197L30.3317 9.22803H18.6847L21.273 16.3197L21.8769 26.2758L22.0839 29.4161L22.1012 37.1463H26.8808L26.9153 29.4161L27.1396 26.2758Z" fill="#F6851B" stroke="#F6851B" stroke-linecap="round" stroke-linejoin="round"/>
</svg>
