<svg width="48" height="48" viewBox="0 0 48 48" fill="none" xmlns="http://www.w3.org/2000/svg">
<path fill-rule="evenodd" clip-rule="evenodd" d="M44 24C44 35.0457 35.0457 44 24 44C12.9543 44 4 35.0457 4 24C4 12.9543 12.9543 4 24 4C35.0457 4 44 12.9543 44 24ZM24.7171 18.7649C22.7718 19.574 18.8839 21.2486 13.0535 23.7889C12.1067 24.1654 11.6108 24.5337 11.5656 24.8938C11.4893 25.5025 12.2515 25.7422 13.2895 26.0685C13.4307 26.1129 13.5769 26.1589 13.7269 26.2077C14.7481 26.5396 16.1217 26.9279 16.8358 26.9434C17.4836 26.9574 18.2066 26.6903 19.0048 26.1422C24.4523 22.465 27.2643 20.6063 27.4409 20.5663C27.5654 20.538 27.738 20.5025 27.855 20.6064C27.9719 20.7103 27.9604 20.9072 27.948 20.96C27.8725 21.2819 24.8806 24.0635 23.3322 25.5029C22.8495 25.9517 22.5071 26.27 22.4371 26.3427C22.2804 26.5056 22.1206 26.6596 21.967 26.8077C21.0183 27.7222 20.3069 28.408 22.0064 29.528C22.8231 30.0662 23.4766 30.5112 24.1286 30.9552C24.8406 31.4401 25.5508 31.9238 26.4697 32.5261C26.7038 32.6796 26.9274 32.839 27.1452 32.9942C27.9738 33.5849 28.7183 34.1157 29.638 34.031C30.1724 33.9819 30.7245 33.4793 31.0048 31.9806C31.6674 28.4386 32.9697 20.7641 33.2707 17.6016C33.2971 17.3245 33.2639 16.9699 33.2373 16.8143C33.2106 16.6586 33.155 16.4368 32.9526 16.2727C32.713 16.0782 32.3431 16.0372 32.1776 16.0401C31.4254 16.0534 30.2713 16.4547 24.7171 18.7649Z" fill="#E6007E"/>
</svg>
