<svg width="40" height="40" viewBox="0 0 40 40" fill="none" xmlns="http://www.w3.org/2000/svg">
<path fill-rule="evenodd" clip-rule="evenodd" d="M20 28.667C17.2386 28.667 15 30.9056 15 33.667V37.667H7V33.667C7 26.4873 12.8203 20.667 20 20.667C27.1797 20.667 33 26.4873 33 33.667V37.667H25V33.667C25 30.9056 22.7614 28.667 20 28.667Z" fill="#E6007E"/>
<path d="M20.3333 18C24.7515 18 28.3333 14.4183 28.3333 10C28.3333 5.58172 24.7515 2 20.3333 2C15.915 2 12.3333 5.58172 12.3333 10C12.3333 14.4183 15.915 18 20.3333 18Z" fill="#E6007E"/>
</svg>
