<svg width="32" height="32" viewBox="0 0 32 32" fill="none" xmlns="http://www.w3.org/2000/svg">
<path d="M31.6812 9.60039C31.6812 9.60039 31.3688 7.39414 30.4062 6.42539C29.1875 5.15039 27.825 5.14414 27.2 5.06914C22.725 4.74414 16.0063 4.74414 16.0063 4.74414H15.9937C15.9937 4.74414 9.275 4.74414 4.8 5.06914C4.175 5.14414 2.8125 5.15039 1.59375 6.42539C0.63125 7.39414 0.325 9.60039 0.325 9.60039C0.325 9.60039 0 12.1941 0 14.7816V17.2066C0 19.7941 0.31875 22.3879 0.31875 22.3879C0.31875 22.3879 0.63125 24.5941 1.5875 25.5629C2.80625 26.8379 4.40625 26.7941 5.11875 26.9316C7.68125 27.1754 16 27.2504 16 27.2504C16 27.2504 22.725 27.2379 27.2 26.9191C27.825 26.8441 29.1875 26.8379 30.4062 25.5629C31.3688 24.5941 31.6812 22.3879 31.6812 22.3879C31.6812 22.3879 32 19.8004 32 17.2066V14.7816C32 12.1941 31.6812 9.60039 31.6812 9.60039ZM12.6938 20.1504V11.1566L21.3375 15.6691L12.6938 20.1504Z" fill="white"/>
</svg>
