<svg width="860" height="115" viewBox="0 0 860 115" fill="none" xmlns="http://www.w3.org/2000/svg">
<path d="M152.84 81.7943C151.449 81.6729 149.999 82.2696 148.283 82.5958C150.311 84.2342 152.014 85.6084 153.956 87.1773C152.983 88.6741 152.136 89.98 151.005 91.7209C145.71 84.745 139.021 86.0863 132.265 87.7437C132.326 93.4655 135.456 95.985 144.839 97.942C142.475 101.833 140.815 102.334 136.969 100.859C132.732 99.2328 130.023 96.3163 128.012 92.1836C126.41 88.8954 123.93 86.0521 121.32 83.3227C119.641 93.3138 122.752 101.181 130.817 106.8C130.5 107.231 130.419 107.464 130.269 107.529C124.464 110.023 124.498 109.998 121.059 104.599C117.95 99.717 115.439 94.6374 115.473 88.5919C111.146 90.5072 109.127 96.3959 111.046 101.171C112.169 103.957 113.245 106.762 114.354 109.592C110.249 110.808 109.773 110.549 108.524 107.029C107.921 105.326 107.174 103.676 106.473 101.965C102.751 103.64 100.834 110.545 95.1961 105.21C102.195 100.254 106.764 93.5995 108.73 84.8006C103.643 84.4213 99.9728 86.3998 97.0302 90.4769C94.3537 94.1861 91.3195 97.6247 88.3192 101.336C86.6207 99.9218 85.4971 98.9875 84.4953 98.1569C87.9664 94.0761 91.1387 90.3479 94.699 86.1647C87.6212 84.1963 83.7609 88.7626 79.234 92.0571C78.28 90.6286 77.4702 89.4124 76.4421 87.8726C78.8625 86.2494 81.1159 84.7374 83.8312 82.9156C81.21 82.4112 79.037 81.5098 76.9505 81.6919C73.0187 82.0358 72.3282 79.7298 71.9717 75.9056C75.1516 76.6591 78.064 77.3329 80.969 78.0421C86.0105 79.2722 90.9893 80.9713 96.1 81.6704C104.438 82.8082 109.762 78.4252 111.201 70.0346C111.399 68.8791 111.634 67.7312 111.877 66.4405C112.574 66.3722 113.189 66.2761 113.806 66.2559C118.574 66.1042 118.574 66.108 119.506 70.869C121.091 78.9713 126.047 82.9662 134.135 81.6818C140.397 80.6856 146.503 78.6881 152.69 77.1787C154.394 76.7615 156.134 76.4922 157.953 76.1357C157.814 79.9523 156.698 82.1293 152.84 81.7943ZM152.84 81.7943C151.449 81.6729 149.999 82.2696 148.283 82.5958C150.311 84.2342 152.014 85.6084 153.956 87.1773C152.983 88.6741 152.136 89.98 151.005 91.7209C145.71 84.745 139.021 86.0863 132.265 87.7437C132.326 93.4655 135.456 95.985 144.839 97.942C142.475 101.833 140.815 102.334 136.969 100.859C132.732 99.2328 130.023 96.3163 128.012 92.1836C126.41 88.8954 123.93 86.0521 121.32 83.3227C119.641 93.3138 122.752 101.181 130.817 106.8C130.5 107.231 130.419 107.464 130.269 107.529C124.464 110.023 124.498 109.998 121.059 104.599C117.95 99.717 115.439 94.6374 115.473 88.5919C111.146 90.5072 109.127 96.3959 111.046 101.171C112.169 103.957 113.245 106.762 114.354 109.592C110.249 110.808 109.773 110.549 108.524 107.029C107.921 105.326 107.174 103.676 106.473 101.965C102.751 103.64 100.834 110.545 95.1961 105.21C102.195 100.254 106.764 93.5995 108.73 84.8006C103.643 84.4213 99.9728 86.3998 97.0302 90.4769C94.3537 94.1861 91.3195 97.6247 88.3192 101.336C86.6207 99.9218 85.4971 98.9875 84.4953 98.1569C87.9664 94.0761 91.1387 90.3479 94.699 86.1647C87.6212 84.1963 83.7609 88.7626 79.234 92.0571C78.28 90.6286 77.4702 89.4124 76.4421 87.8726C78.8625 86.2494 81.1159 84.7374 83.8312 82.9156C81.21 82.4112 79.037 81.5098 76.9505 81.6919C73.0187 82.0358 72.3282 79.7298 71.9717 75.9056C75.1516 76.6591 78.064 77.3329 80.969 78.0421C86.0105 79.2722 90.9893 80.9713 96.1 81.6704C104.438 82.8082 109.762 78.4252 111.201 70.0346C111.399 68.8791 111.634 67.7312 111.877 66.4405C112.574 66.3722 113.189 66.2761 113.806 66.2559C118.574 66.1042 118.574 66.108 119.506 70.869C121.091 78.9713 126.047 82.9662 134.135 81.6818C140.397 80.6856 146.503 78.6881 152.69 77.1787C154.394 76.7615 156.134 76.4922 157.953 76.1357C157.814 79.9523 156.698 82.1293 152.84 81.7943ZM795.583 44.9464C791.454 41.5457 784.62 39.8441 775.077 39.8441C774.548 39.8441 774.006 39.8441 773.469 39.8441V70.6187C773.469 74.9385 773.977 77.9625 774.995 79.6881C776.014 81.4176 777.811 82.2797 780.384 82.2797C786.175 82.2797 790.598 81.3088 793.654 79.3645C796.709 77.4201 798.824 74.8298 800.006 71.5896C801.185 68.3507 801.776 64.8969 801.776 61.2231C801.777 53.7744 799.709 48.3484 795.583 44.9464ZM802.661 81.7956C797.567 84.3872 790.732 85.683 782.153 85.683C779.901 85.683 777.329 85.5755 774.433 85.3581C771.538 85.1432 768.644 85.0345 765.748 85.0345C762.424 85.0345 758.885 85.1166 755.133 85.2772C751.379 85.4403 748.591 85.5755 746.769 85.683V82.2797C751.164 82.2797 754.301 81.4719 756.178 79.8512C758.054 78.2305 758.993 75.1534 758.993 70.6187V17.4929C758.993 12.9581 758.188 9.88105 756.58 8.26034C754.973 6.64215 752.239 5.83179 748.377 5.83179V2.42854C750.091 2.53727 752.639 2.67127 756.016 2.83436C759.393 2.99491 762.853 3.07708 766.392 3.07708C769.93 3.07708 773.573 2.99491 777.329 2.83436C781.081 2.67127 783.867 2.53727 785.692 2.42854V5.83179C781.293 5.83179 778.157 6.64215 776.283 8.26034C774.406 9.88105 773.469 12.9581 773.469 17.4929V37.0919C773.654 37.0919 773.845 37.0919 774.031 37.0919C777.515 37.0919 781.027 37.0919 784.566 37.0919C796.252 37.0919 804.563 39.279 809.495 43.6531C814.426 48.0248 816.894 53.5595 816.894 60.2547C816.894 64.2509 815.793 68.1901 813.596 72.0788C811.399 75.965 807.751 79.2039 802.661 81.7956ZM850.591 79.8525C852.466 81.4732 855.602 82.281 860 82.281V85.6843C858.175 85.5768 855.335 85.4415 851.475 85.2785C847.615 85.1179 843.915 85.0357 840.376 85.0357C837.16 85.0357 833.834 85.1179 830.406 85.2785C826.971 85.4415 824.399 85.5768 822.685 85.6843V82.281C826.546 82.281 829.28 81.4732 830.887 79.8525C832.496 78.2318 833.299 75.1547 833.299 70.62V17.4929C833.299 12.9581 832.495 9.88105 830.887 8.26034C829.28 6.64215 826.546 5.83179 822.685 5.83179V2.42854C824.399 2.53727 826.972 2.67127 830.406 2.83436C833.834 2.99491 837.161 3.07708 840.376 3.07708C843.915 3.07708 847.373 2.99491 850.752 2.83436C854.129 2.67127 856.676 2.53727 858.391 2.42854V5.83179C854.53 5.83179 851.796 6.64215 850.188 8.26034C848.58 9.88105 847.775 12.9581 847.775 17.4929V70.62C847.776 75.1547 848.714 78.2318 850.591 79.8525ZM728.354 79.8525C730.23 81.4732 733.366 82.281 737.763 82.281V85.6843C735.938 85.5768 733.26 85.4415 729.721 85.2785C726.182 85.1179 722.322 85.0357 718.141 85.0357C713.959 85.0357 709.751 85.1179 705.515 85.2785C701.278 85.4415 697.98 85.5768 695.623 85.6843V82.281C700.45 82.281 704.228 81.4997 706.963 79.9334C709.697 78.3683 711.064 75.2647 711.064 70.62V17.4929C711.064 12.9581 710.259 9.88105 708.651 8.26034C707.043 6.64215 704.307 5.83179 700.448 5.83179H699C696.318 5.83179 694.549 6.64215 693.692 8.26034C692.832 9.88105 692.189 12.9581 691.761 17.4929C690.901 27.5357 689.858 37.1197 688.625 46.2435C687.391 55.3685 685.328 63.6011 682.434 70.9436C681.362 73.5352 680.021 76.1547 678.412 78.7994C676.805 81.4454 674.846 83.6324 672.542 85.3581C670.235 87.085 667.475 87.951 664.26 87.951C662.329 87.951 660.504 87.5983 658.79 86.8979C657.073 86.1937 655.679 85.1166 654.609 83.6577C653.536 82.2001 652.999 80.3948 652.999 78.2318C652.999 75.5339 653.804 73.429 655.412 71.9145C657.021 70.405 659.11 69.6465 661.684 69.6465C663.936 69.6465 665.839 70.2951 667.395 71.5909C668.949 72.8879 669.726 74.831 669.726 77.4227C669.726 79.1521 669.242 80.6894 668.278 82.0395C667.314 83.3897 665.759 84.4972 663.613 85.3581C663.828 85.4668 664.122 85.5212 664.497 85.5212C664.871 85.5212 665.114 85.5212 665.222 85.5212C667.901 85.5212 670.179 84.6312 672.058 82.8474C673.931 81.0661 675.541 78.9612 676.883 76.5314C678.221 74.1016 679.214 71.9714 679.859 70.1332C681.573 65.5985 683.02 60.524 684.2 54.9084C685.379 49.2953 686.343 43.3017 687.096 36.9301C687.843 30.5584 688.436 24.0794 688.865 17.4929C689.187 12.9581 688.248 9.88105 686.051 8.26034C683.852 6.64215 680.555 5.83179 676.158 5.83179V2.42854C677.016 2.53727 678.383 2.67127 680.26 2.83436C682.135 2.99491 684.415 3.07708 687.096 3.07708C689.239 3.07708 691.463 3.07708 693.771 3.07708C696.075 3.07708 698.407 3.07708 700.767 3.07708C702.802 3.07708 704.679 3.07708 706.396 3.07708C708.11 3.07708 709.935 3.07708 711.866 3.07708C713.797 3.07708 715.94 3.07708 718.3 3.07708C720.764 3.07708 723.257 3.02399 725.779 2.914C728.298 2.80907 730.629 2.69909 732.776 2.59036C734.918 2.48543 736.581 2.42728 737.762 2.42728V5.83053C733.363 5.83053 730.227 6.64089 728.353 8.25907C726.476 9.87979 725.538 12.9569 725.538 17.4916V70.6187C725.54 75.1547 726.477 78.2318 728.354 79.8525ZM637.803 79.8525C639.678 81.4732 642.814 82.281 647.212 82.281V85.6843C645.388 85.5768 642.601 85.4415 638.849 85.2785C635.095 85.1179 631.45 85.0357 627.912 85.0357C624.373 85.0357 620.916 85.1179 617.536 85.2785C614.159 85.4415 611.611 85.5768 609.897 85.6843V82.281C613.758 82.281 616.492 81.4732 618.1 79.8525C619.709 78.2318 620.513 75.1547 620.513 70.62V21.3677L582.732 73.941C583.049 76.6894 583.789 78.6666 584.966 79.8525C586.574 81.4732 589.309 82.281 593.169 82.281V85.6843C591.452 85.5768 588.907 85.4415 585.528 85.2785C582.151 85.1179 578.694 85.0357 575.155 85.0357C571.616 85.0357 567.97 85.1179 564.218 85.2785C560.462 85.4415 557.676 85.5768 555.855 85.6843V82.281C560.25 82.281 563.386 81.4732 565.264 79.8525C567.137 78.2318 568.078 75.1547 568.078 70.62V17.4929C568.078 12.9581 567.137 9.88105 565.264 8.26034C563.386 6.64215 560.249 5.83179 555.855 5.83179V2.42854C557.676 2.53727 560.463 2.67127 564.218 2.83436C567.97 2.99491 571.616 3.07708 575.155 3.07708C578.694 3.07708 582.151 2.99491 585.528 2.83436C588.907 2.67127 591.452 2.53727 593.169 2.42854V5.83179C589.309 5.83179 586.575 6.64215 584.966 8.26034C583.359 9.88105 582.554 12.9581 582.554 17.4929V68.6819L620.478 16.0466C620.319 12.302 619.53 9.70154 618.099 8.26034C616.492 6.64215 613.758 5.83179 609.896 5.83179V2.42854C611.61 2.53727 614.158 2.67127 617.535 2.83436C620.914 2.99491 624.372 3.07708 627.911 3.07708C631.448 3.07708 635.094 2.99491 638.847 2.83436C642.6 2.67127 645.388 2.53727 647.211 2.42854V5.83179C642.812 5.83179 639.676 6.64215 637.802 8.26034C635.925 9.88105 634.987 12.9581 634.987 17.4929V70.62C634.988 75.1547 635.926 78.2318 637.803 79.8525ZM521.918 45.6759C524.385 47.2966 526.421 49.4558 528.031 52.1549C529.852 55.0702 531.381 58.5531 532.615 62.6011C533.846 66.6516 535.16 70.242 536.556 73.3734C537.735 76.0738 539.102 78.1521 540.659 79.6085C542.21 81.0661 544.651 81.9561 547.976 82.2797V85.683C546.259 86.0066 544.57 86.2747 542.909 86.4908C541.246 86.707 539.666 86.8157 538.164 86.8157C533.982 86.8157 530.629 85.8436 528.11 83.8992C525.59 81.9548 523.632 78.6098 522.24 73.8563C521.489 71.051 520.443 67.4594 519.104 63.0865C517.762 58.7124 515.968 54.9627 513.716 51.83C511.356 48.4837 508.3 46.2978 504.548 45.2688C500.965 44.2903 496.345 43.8832 490.715 44.0349V70.6187C490.715 75.1534 491.519 78.2305 493.128 79.8512C494.737 81.4719 497.469 82.2797 501.33 82.2797V85.683C499.615 85.5755 497.068 85.4403 493.691 85.2772C490.314 85.1166 486.909 85.0345 483.478 85.0345C480.153 85.0345 476.776 85.1166 473.345 85.2772C469.911 85.4403 467.339 85.5755 465.625 85.683V82.2797C469.485 82.2797 472.219 81.4719 473.828 79.8512C475.437 78.2305 476.24 75.1534 476.24 70.6187V44.0362C471.014 43.8857 466.531 44.2663 462.81 45.1891C458.895 46.1613 455.706 48.3762 453.239 51.83C451.737 53.9906 450.399 56.5544 449.22 59.5227C448.038 62.4949 447.101 65.3002 446.405 67.9449C445.706 70.5934 445.142 72.5618 444.717 73.8563C443.321 78.6098 441.364 81.9548 438.847 83.8992C436.325 85.8436 432.976 86.8157 428.795 86.8157C427.291 86.8157 425.71 86.707 424.051 86.4908C422.387 86.2747 420.698 86.0066 418.983 85.683V82.2797C422.306 81.9561 424.746 81.0661 426.303 79.6085C427.855 78.1508 429.222 76.0738 430.403 73.3734C431.795 70.242 433.137 66.6516 434.425 62.6011C435.711 58.5531 437.211 55.0689 438.928 52.1549C440.75 49.2397 442.976 46.9704 445.603 45.3522C448.229 43.7315 451.177 42.5988 454.45 41.9515C457.265 41.3914 460.316 41.0918 463.574 41.0122C459.379 39.576 456.334 37.3548 454.45 34.3372C452.358 30.9908 450.56 27.3208 449.06 23.3234C447.988 20.5156 446.995 17.8974 446.086 15.4676C445.174 13.0378 444.208 10.9885 443.19 9.31216C442.171 7.63961 441.018 6.53343 439.733 5.99108C439.733 6.09981 439.733 6.26289 439.733 6.4778C439.733 6.69651 439.733 6.91016 439.733 7.12508C439.733 9.17815 439.356 10.9872 438.607 12.5523C437.856 14.1187 436.782 15.3336 435.389 16.197C433.996 17.063 432.334 17.4916 430.403 17.4916C427.721 17.4916 425.631 16.6559 424.131 14.9809C422.627 13.3083 421.879 11.2843 421.879 8.90761C421.879 6.63962 422.655 4.58908 424.21 2.75218C425.762 0.91908 428.414 0 432.171 0C436.352 0 439.65 1.07963 442.062 3.2389C444.474 5.4007 446.35 8.0745 447.691 11.2578C449.031 14.4448 450.184 17.5485 451.149 20.5712C452.649 24.7823 454.259 28.3752 455.974 31.3435C457.687 34.3131 460.155 36.6064 463.373 38.2259C466.437 39.7707 470.737 40.7682 476.239 41.2322V17.4929C476.239 12.9581 475.434 9.88105 473.826 8.26034C472.219 6.64215 469.485 5.83179 465.624 5.83179V2.42854C467.337 2.53727 469.911 2.67127 473.344 2.83436C476.775 2.99491 480.152 3.07708 483.476 3.07708C486.907 3.07708 490.313 2.99491 493.69 2.83436C497.067 2.67127 499.614 2.53727 501.329 2.42854V5.83179C497.469 5.83179 494.736 6.64215 493.126 8.26034C491.517 9.88105 490.714 12.9581 490.714 17.4929V41.2309C496.215 40.7682 500.516 39.7695 503.58 38.2246C506.797 36.6039 509.291 34.3119 511.059 31.3423C512.829 28.3739 514.41 24.781 515.805 20.5699C516.875 17.5485 518.057 14.4436 519.344 11.2565C520.632 8.07324 522.479 5.4007 524.892 3.23764C527.308 1.07963 530.603 0 534.785 0C538.537 0 541.191 0.91908 542.747 2.75345C544.302 4.59034 545.079 6.64089 545.079 8.90888C545.079 11.2856 544.328 13.3096 542.827 14.9821C541.324 16.6572 539.235 17.4929 536.555 17.4929C534.624 17.4929 532.961 17.0643 531.568 16.1983C530.172 15.3348 529.1 14.1199 528.351 12.5536C527.6 10.9885 527.225 9.17942 527.225 7.12634C527.225 6.91143 527.225 6.69778 527.225 6.47907C527.225 6.26415 527.225 6.10233 527.225 5.99235C525.939 6.53469 524.813 7.64088 523.848 9.31342C522.884 10.9885 521.942 13.0138 521.033 15.3879C520.121 17.7647 519.076 20.4094 517.897 23.3234C516.393 27.3195 514.6 30.9908 512.508 34.3372C510.624 37.3561 507.572 39.5786 503.382 41.0147C507.116 41.0969 510.443 41.4509 513.313 42.1121C516.584 42.8693 519.45 44.0564 521.918 45.6759ZM392.523 12.7951C388.608 6.42597 383.596 3.2389 377.485 3.2389C371.374 3.2389 366.359 6.42597 362.447 12.7951C358.532 19.1679 356.577 29.5875 356.577 44.0564C356.577 58.5278 358.532 68.9196 362.447 75.2356C366.359 81.5528 371.374 84.7108 377.485 84.7108C383.596 84.7108 388.608 81.5528 392.523 75.2356C396.435 68.9196 398.394 58.5278 398.394 44.0564C398.395 29.5875 396.436 19.1679 392.523 12.7951ZM409.089 69.2432C405.819 75.6679 401.45 80.3948 395.981 83.415C390.514 86.4365 384.346 87.9523 377.485 87.9523C370.729 87.9523 364.59 86.4377 359.069 83.415C353.544 80.3948 349.148 75.6679 345.879 69.2432C342.606 62.8198 340.974 54.4229 340.974 44.0564C340.974 33.6899 342.606 25.2677 345.879 18.7887C349.148 12.3096 353.544 7.5587 359.069 4.53472C364.59 1.51326 370.729 0 377.485 0C384.347 0 390.514 1.51326 395.981 4.53472C401.45 7.5587 405.818 12.3096 409.089 18.7887C412.36 25.2677 413.995 33.6899 413.995 44.0564C413.995 54.4229 412.361 62.8198 409.089 69.2432ZM308.164 21.2185C306.77 15.7103 304.677 11.6092 301.892 8.90888C299.102 6.21106 295.671 4.85835 291.598 4.85835C286.342 4.85835 281.57 7.04543 277.282 11.4196C274.023 14.7407 271.669 19.3614 270.205 25.2652V73.8361C271.699 76.7261 273.812 79.1673 276.558 81.1458C279.398 83.1988 282.963 84.2228 287.253 84.2228C293.256 84.2228 297.921 82.3366 301.245 78.5541C304.567 74.7754 306.901 69.7274 308.243 63.4102C309.582 57.0942 310.253 50.1044 310.253 42.4344C310.255 33.7986 309.556 26.7254 308.164 21.2185ZM323.765 57.4191C322.372 63.0878 320.2 68.218 317.253 72.807C314.301 77.3974 310.497 81.0674 305.832 83.8208C301.167 86.5743 295.563 87.951 289.023 87.951C283.981 87.951 279.615 86.7601 275.914 84.3872C273.49 82.8309 271.595 81.0611 270.205 79.0864V99.9357C270.205 104.578 271.572 107.684 274.306 109.25C277.039 110.813 280.819 111.598 285.644 111.598V114.999C283.283 114.89 280.014 114.756 275.833 114.594C271.651 114.431 267.201 114.351 262.483 114.351C259.159 114.351 255.861 114.432 252.592 114.594C249.319 114.755 246.826 114.889 245.113 114.999V111.598C248.973 111.598 251.706 110.895 253.314 109.493C254.923 108.087 255.727 105.443 255.727 101.555V19.9227C255.727 15.0643 254.867 11.4752 253.153 9.15034C251.436 6.83052 248.218 5.66871 243.502 5.66871V2.26799C246.933 2.59163 250.257 2.75471 253.475 2.75471C256.582 2.75471 259.558 2.56634 262.402 2.18834C265.241 1.81161 267.842 1.24398 270.202 0.487985V17.4119C271.856 13.5776 274.068 10.3008 276.877 7.61433C282.189 2.53727 288.542 0 295.94 0C301.622 0 306.717 1.53728 311.22 4.61563C315.723 7.69271 319.288 12.2034 321.918 18.1414C324.544 24.0806 325.858 31.4219 325.858 40.169C325.857 45.9995 325.158 51.7491 323.765 57.4191ZM211.342 36.2815C210.054 38.1197 208.177 39.6582 205.712 40.8984C203.243 42.1411 200.566 43.3838 197.67 44.6228C194.775 45.8655 192.014 47.3231 189.388 48.9969C186.758 50.672 184.586 52.8578 182.873 55.5556C181.158 58.256 180.299 61.7667 180.299 66.0852C180.299 70.405 181.45 73.8589 183.756 76.4517C186.061 79.0434 189.197 80.3392 193.165 80.3392C196.704 80.3392 200.002 79.3127 203.058 77.2621C206.113 75.2116 208.873 72.1332 211.342 68.0296V36.2815ZM233.376 85.1166C231.337 86.2506 228.603 86.817 225.172 86.817C222.061 86.817 219.488 86.2747 217.453 85.1963C215.414 84.1179 213.885 82.5225 212.868 80.4176C211.848 78.3114 211.342 75.6389 211.342 72.3987C208.446 77.2596 204.988 80.8765 200.966 83.2519C196.947 85.6286 192.415 86.8157 187.374 86.8157C182.978 86.8157 179.173 85.9776 175.954 84.305C172.738 82.6312 170.299 80.2836 168.637 77.2596C166.973 74.2381 166.143 70.7274 166.143 66.73C166.143 61.9791 167.243 58.0929 169.441 55.0677C171.638 52.0462 174.453 49.6177 177.885 47.7795C181.316 45.9451 184.934 44.4066 188.741 43.1639C192.546 41.9224 196.166 40.7341 199.598 39.6001C203.029 38.4661 205.843 37.145 208.043 35.6317C210.24 34.121 211.341 32.1235 211.341 29.6394V19.5965C211.341 15.0618 210.669 11.6067 209.328 9.22999C207.987 6.8558 206.192 5.26164 203.94 4.45128C201.688 3.64092 199.167 3.23511 196.382 3.23511C193.7 3.23511 190.833 3.61564 187.776 4.3691C184.72 5.12763 182.28 6.69398 180.458 9.0669C182.493 9.49926 184.262 10.5814 185.766 12.3071C187.266 14.034 188.018 16.2501 188.018 18.9467C188.018 21.6483 187.158 23.7823 185.444 25.3449C183.729 26.9112 181.528 27.695 178.85 27.695C175.74 27.695 173.461 26.6976 172.014 24.6976C170.566 22.7001 169.842 20.4612 169.842 17.9758C169.842 15.168 170.537 12.9012 171.933 11.1731C173.325 9.44617 175.094 7.82671 177.241 6.31219C179.705 4.58655 182.895 3.1011 186.811 1.85839C190.725 0.621991 195.149 0 200.081 0C204.476 0 208.229 0.513269 211.341 1.53728C214.448 2.56508 217.021 4.048 219.06 5.99108C221.848 8.58271 223.67 11.742 224.53 15.4663C225.387 19.1907 225.818 23.6458 225.818 28.829V73.8563C225.818 76.5567 226.219 78.4998 227.023 79.6881C227.827 80.8777 229.087 81.4707 230.801 81.4707C231.98 81.4707 233.106 81.2026 234.181 80.6603C235.252 80.1205 236.537 79.2583 238.04 78.0674L239.81 80.8209C237.558 82.5528 235.411 83.9826 233.376 85.1166ZM153.842 13.2805C153.683 16.7369 153.601 19.3816 153.601 21.2185C153.601 23.1603 153.654 25.0237 153.763 26.805C153.867 28.5875 153.976 30.0743 154.084 31.2588H150.386C149.847 23.8088 148.723 18.2476 147.009 14.5763C145.292 10.9063 142.932 8.5018 139.931 7.36781C136.928 6.23381 133.23 5.66745 128.833 5.66745H122.561V68.998C122.561 74.2887 124.087 77.8259 127.144 79.6072C130.2 81.3885 134.355 82.2785 139.61 82.2785V85.6817C137.142 85.5743 133.74 85.439 129.396 85.2759C125.055 85.1154 120.361 85.0332 115.323 85.0332C110.391 85.0332 105.726 85.1154 101.329 85.2759C96.9323 85.439 93.5013 85.5743 91.0345 85.6817V82.2785C96.395 82.2785 100.577 81.3885 103.582 79.6072C106.581 77.8259 108.085 74.2887 108.085 68.998V5.66871H100.203C95.8062 5.66871 92.2422 6.26415 89.5068 7.44998C86.7726 8.64087 84.6824 11.0694 83.2337 14.7381C81.7862 18.4107 80.7932 23.9707 80.2597 31.4219H76.5589C76.7735 30.2348 76.9066 28.7481 76.9618 26.9681C77.0145 25.1868 77.0422 23.3234 77.0422 21.3803C77.0422 19.5459 76.9618 16.9012 76.8011 13.4449C76.6417 9.98978 76.3442 6.37288 75.9174 2.59163H91.3584C95.0028 2.59163 98.8894 2.64725 103.02 2.75471C107.145 2.86217 111.193 2.91526 115.162 2.91526C119.235 2.91526 123.365 2.83436 127.547 2.67254C131.729 2.51198 135.64 2.42981 139.289 2.42981H154.728C154.296 6.21106 154.004 9.82669 153.842 13.2805ZM55.1673 26.7254C52.8072 26.7254 50.7434 26.025 48.9758 24.6205C47.207 23.2185 46.3207 21.2197 46.3207 18.6268C46.3207 16.1452 46.9898 14.1478 48.3331 12.6345C49.6726 11.1238 51.2518 10.1503 53.0771 9.71797C52.0025 7.77615 50.1006 6.15543 47.3664 4.85962C44.6322 3.56507 41.7085 2.91526 38.6014 2.91526C35.92 2.91526 33.2385 3.5638 30.5595 4.85962C27.878 6.1567 25.4112 8.28942 23.1604 11.2578C20.9082 14.2299 19.0854 18.2779 17.6932 23.4056C16.2972 28.5357 15.6018 34.9339 15.6018 42.6C15.6018 52.1031 16.6726 59.6631 18.8193 65.2761C20.9622 70.8905 23.7767 74.9132 27.2629 77.343C30.7466 79.7716 34.5805 80.9877 38.7621 80.9877C41.5503 80.9877 44.3925 80.4479 47.2873 79.367C50.1822 78.2886 52.9164 76.5327 55.4887 74.1029C58.0635 71.6743 60.2604 68.4089 62.0832 64.304L65.1387 65.438C64.0666 68.8968 62.2953 72.3785 59.831 75.8867C57.363 79.3974 54.1467 82.2835 50.1797 84.5528C46.2127 86.8208 41.3344 87.9535 35.5446 87.9535C28.8949 87.9535 22.8904 86.2241 17.53 82.769C12.1683 79.3127 7.90759 74.3734 4.74531 67.9462C1.58051 61.5227 0 53.8844 0 45.0273C0 36.1753 1.58051 28.3739 4.74531 21.623C7.90759 14.8759 12.329 9.5827 18.0146 5.74962C23.6964 1.91907 30.1842 0 37.4766 0C40.9075 0 44.2318 0.432359 47.4493 1.29455C50.6656 2.16053 53.5617 3.45635 56.1339 5.18199C58.5982 6.80271 60.475 8.66489 61.763 10.7698C63.0511 12.876 63.6938 15.1705 63.6938 17.6547C63.6938 20.5699 62.8891 22.8114 61.281 24.3765C59.6703 25.9428 57.6341 26.7254 55.1673 26.7254Z" fill="white"/>
</svg>
