<svg width="220" height="47" viewBox="0 0 220 47" fill="none" xmlns="http://www.w3.org/2000/svg">
<g clip-path="url(#clip0_22_118)">
<path d="M214.214 47C142.847 47 71.537 47 0.213379 47C2.14144 31.4197 4.06951 15.8394 5.99961 0.242458C77.3228 0.242458 148.66 0.242458 220 0.242458C218.073 15.8174 216.143 31.4088 214.214 47Z" fill="#E6007E"/>
<path d="M19.7286 15.7116H35.0581L33.1776 30.9076H17.8481L19.7286 15.7116Z" fill="white"/>
<path d="M25.4894 19.9975H32.172L31.3524 26.6211H24.6697L25.4894 19.9975Z" fill="black"/>
<path d="M38.9847 15.7116H54.3142L52.4337 30.9076H37.1042L38.9847 15.7116Z" fill="white"/>
<path d="M44.7455 19.9975H51.4282L50.6085 26.6211H43.9258L44.7455 19.9975Z" fill="black"/>
<path d="M193.72 23.62C193.25 23.8395 192.741 24.0086 192.192 24.1274C191.642 24.2467 190.983 24.3604 190.214 24.4701L189.198 24.6346C188.141 24.836 187.582 25.1832 187.521 25.6764C187.456 26.2069 187.902 26.4716 188.861 26.4716C189.893 26.4716 190.848 26.2758 191.726 25.8823C192.604 25.4892 193.239 24.9729 193.631 24.3327L193.72 23.62ZM193.649 20.617C193.392 20.462 193.014 20.384 192.517 20.384C191.577 20.384 190.728 20.5395 189.971 20.8506C189.214 21.1616 188.51 21.6276 187.863 22.2487C188.984 22.1214 190.375 22.057 192.033 22.057C192.715 22.057 193.204 21.9749 193.501 21.8104C193.798 21.6458 193.963 21.4359 193.994 21.1793C194.021 20.9602 193.906 20.773 193.649 20.617ZM200.032 30.6947C199.431 30.7867 198.911 30.8502 198.474 30.8869C198.036 30.9231 197.458 30.9418 196.739 30.9418C195.154 30.9418 194.147 30.5899 193.718 29.8859C193.289 29.1823 193.143 28.282 193.278 27.1848L193.363 26.4993C192.643 27.9985 191.726 29.1139 190.614 29.8446C189.5 30.5764 188.151 30.9418 186.566 30.9418C184.723 30.9418 183.381 30.5764 182.541 29.8446C181.701 29.1139 181.37 28.0258 181.549 26.5814C181.696 25.3936 182.207 24.4611 183.083 23.7847C183.959 23.1083 185.243 22.6422 186.933 22.386C185.655 21.3986 184.36 20.5395 183.051 19.8083C184.328 18.4192 185.721 17.3634 187.229 16.6411C188.738 15.9189 190.506 15.5581 192.534 15.5581C195.372 15.5581 197.402 16.166 198.625 17.3815C199.847 18.5974 200.303 20.4666 199.99 22.9896L199.587 26.2528C199.51 26.8744 199.529 27.3132 199.645 27.5689C199.76 27.8251 200.033 28.0077 200.462 28.1175L200.032 30.6947ZM173.097 25.1832C172.711 25.0187 172.012 24.9361 170.998 24.9361H168.897L168.64 27.0202H170.74C171.791 27.0202 172.52 26.9427 172.926 26.7872C173.332 26.6322 173.56 26.3533 173.61 25.9507C173.653 25.604 173.481 25.3478 173.097 25.1832ZM173.416 19.8082C173.072 19.6804 172.486 19.6164 171.657 19.6164H169.556L169.318 21.536H171.419C172.267 21.536 172.875 21.4585 173.245 21.303C173.614 21.1474 173.824 20.8686 173.874 20.4665C173.912 20.156 173.76 19.9366 173.416 19.8082ZM179.917 26.3624C179.741 27.7882 179.056 28.8848 177.865 29.6529C176.674 30.4209 174.649 30.8044 171.793 30.8044H162.449C162.798 28.7203 163.154 26.225 163.513 23.3181C163.873 20.4117 164.135 17.9164 164.301 15.8324H170.024L170.02 15.8596H173.614C175.346 15.8596 176.688 16.0015 177.64 16.2849C178.59 16.5682 179.236 16.9748 179.576 17.5048C179.915 18.0352 180.035 18.7116 179.933 19.534C179.704 21.381 178.247 22.6604 175.56 23.373C178.711 23.373 180.164 24.3699 179.917 26.3624ZM154.966 20.2335C154.513 19.8766 153.889 19.6985 153.097 19.6985C152.175 19.6985 151.398 19.8726 150.765 20.2194C150.132 20.5672 149.659 21.0422 149.345 21.6457H155.869C155.72 21.0609 155.419 20.5898 154.966 20.2335ZM161.307 23.9492H157.879H148.866C148.914 24.7539 149.197 25.4072 149.716 25.9094C150.234 26.4127 151.027 26.6638 152.097 26.6638C152.871 26.6638 153.617 26.5129 154.337 26.2114C155.055 25.9094 155.652 25.4847 156.125 24.9361C157.285 25.5395 158.846 26.1887 160.805 26.8832C160.075 28.1631 158.913 29.1822 157.317 29.9407C155.72 30.6996 153.716 31.0786 151.301 31.0786C148.168 31.0786 145.939 30.3614 144.615 28.926C143.29 27.4911 142.773 25.6039 143.063 23.2631C143.345 20.9782 144.321 19.1226 145.991 17.6968C147.66 16.2705 150.07 15.5579 153.222 15.5579C155.102 15.5579 156.695 15.8689 158 16.49C159.305 17.1121 160.258 17.9757 160.859 19.0814C161.459 20.1876 161.671 21.4533 161.494 22.8796C161.435 23.3553 161.373 23.7116 161.307 23.9492ZM136.109 19.8082H133.621C132.275 19.8082 131.358 19.8907 130.867 20.0553C130.377 20.2194 130.105 20.5213 130.05 20.9602C129.994 21.4171 130.199 21.7327 130.666 21.9058C131.133 22.08 132.02 22.1666 133.329 22.1666H135.817L136.109 19.8082ZM140.194 30.8044H134.748L135.339 26.0333H133.099C131.581 28.0258 130.426 29.6166 129.634 30.8044H123.137C124.858 28.8124 126.315 27.0937 127.508 25.6493C126.133 25.2839 125.202 24.6895 124.715 23.8666C124.226 23.0443 124.057 22.0297 124.207 20.8228C124.395 19.3055 125.097 18.0991 126.313 17.2032C127.53 16.3079 129.539 15.8595 132.34 15.8595H136.598L136.601 15.8323H142.047C141.611 18.6109 141.257 21.1067 140.983 23.318C140.709 25.5305 140.446 28.0258 140.194 30.8044ZM117.895 23.1264C118.081 23.1083 118.341 23.0992 118.673 23.0992C119.907 23.0992 120.78 23.3825 121.29 23.9492C121.801 24.5159 122.009 25.1832 121.913 25.9507C121.712 27.5783 120.809 28.8395 119.206 29.7349C117.602 30.6312 115.63 31.0786 113.29 31.0786C111.243 31.0786 109.485 30.7318 108.013 30.0368C106.542 29.3423 105.558 28.1722 105.062 26.5264L106.287 26.225C108.053 25.8048 109.375 25.4022 110.252 25.0186C110.476 25.5853 110.837 26.0191 111.335 26.3211C111.832 26.6226 112.523 26.7736 113.407 26.7736C114.403 26.7736 115.174 26.6825 115.722 26.4993C116.27 26.3166 116.57 26.0152 116.622 25.5944C116.663 25.2653 116.396 25.0368 115.822 24.9089C115.248 24.7811 114.409 24.7167 113.303 24.7167H111.727L112.175 21.0971H113.115C114.128 21.0971 114.945 21.0517 115.564 20.9602C116.184 20.8686 116.513 20.6677 116.551 20.3567C116.59 20.0462 116.445 19.7991 116.118 19.6164C115.79 19.4336 115.331 19.3421 114.742 19.3421C113.783 19.3421 113.011 19.5157 112.424 19.8629C111.837 20.2107 111.256 20.7774 110.68 21.563C109.298 20.9601 107.757 20.5308 106.056 20.2741C107.862 17.1483 111.004 15.5851 115.483 15.5851C116.791 15.5851 117.966 15.7728 119.007 16.1473C120.049 16.5223 120.842 17.0341 121.389 17.6827C121.935 18.3319 122.158 19.0587 122.059 19.8629C121.842 21.618 120.454 22.7061 117.895 23.1264ZM96.7407 23.62C96.2712 23.8395 95.7618 24.0086 95.2125 24.1274C94.6631 24.2467 94.0038 24.3604 93.235 24.4701L92.2194 24.6346C91.1623 24.836 90.6035 25.1832 90.5424 25.6764C90.4768 26.2069 90.9228 26.4716 91.8815 26.4716C92.9132 26.4716 93.8687 26.2758 94.7467 25.8823C95.6246 25.4892 96.2596 24.9729 96.6523 24.3327L96.7407 23.62ZM96.6699 20.617C96.4127 20.462 96.0353 20.384 95.5377 20.384C94.5978 20.384 93.7492 20.5395 92.9915 20.8506C92.2343 21.1616 91.5314 21.6276 90.8834 22.2487C92.005 22.1214 93.3952 22.057 95.0543 22.057C95.736 22.057 96.2255 21.9749 96.5224 21.8104C96.8191 21.6458 96.9831 21.4359 97.0148 21.1793C97.0419 20.9602 96.9271 20.773 96.6699 20.617ZM103.053 30.6947C102.451 30.7867 101.932 30.8502 101.495 30.8869C101.057 30.9231 100.479 30.9418 99.76 30.9418C98.1749 30.9418 97.168 30.5899 96.7393 29.8859C96.31 29.1823 96.1637 28.282 96.2995 27.1848L96.3843 26.4993C95.6641 27.9985 94.7475 29.1139 93.6341 29.8446C92.5209 30.5764 91.1716 30.9418 89.5866 30.9418C87.7433 30.9418 86.4017 30.5764 85.5621 29.8446C84.7212 29.1139 84.3908 28.0258 84.5695 26.5814C84.7165 25.3936 85.228 24.4611 86.1045 23.7847C86.9805 23.1083 88.2636 22.6422 89.9546 22.386C88.6758 21.3986 87.3811 20.5395 86.0712 19.8083C87.3488 18.4192 88.742 17.3634 90.2505 16.6411C91.7592 15.9189 93.5268 15.5581 95.5542 15.5581C98.3922 15.5581 100.423 16.166 101.646 17.3815C102.868 18.5974 103.324 20.4666 103.012 22.9896L102.608 26.2528C102.531 26.8744 102.55 27.3132 102.666 27.5689C102.781 27.8251 103.054 28.0077 103.483 28.1175L103.053 30.6947ZM83.2175 30.8044H76.3613C76.0972 30.1098 75.5776 29.0952 74.8029 27.7606L74.2794 26.8557C74.1485 27.0202 74.0021 27.1943 73.8415 27.3771C73.6804 27.5598 73.5217 27.7606 73.3662 27.98C72.9335 28.4923 72.526 28.9946 72.1428 29.4884C71.7591 29.982 71.4421 30.4209 71.1917 30.8044H64.3359L71.0913 23.1265L66.4099 15.8325H73.2382C73.4325 16.3443 73.8317 17.1394 74.4358 18.218L75.1786 19.5889L76.0986 18.4097C77.0151 17.2582 77.6555 16.3991 78.0209 15.8324H84.8492L78.362 23.1264L83.2175 30.8044Z" fill="white"/>
</g>
<defs>
<clipPath id="clip0_22_118">
<rect width="220" height="47" fill="white"/>
</clipPath>
</defs>
</svg>
