<svg width="48" height="48" viewBox="0 0 48 48" fill="none" xmlns="http://www.w3.org/2000/svg">
<path fill-rule="evenodd" clip-rule="evenodd" d="M43.999 24C43.999 35.0457 35.0447 44 23.999 44C12.9533 44 3.99902 35.0457 3.99902 24C3.99902 12.9543 12.9533 4 23.999 4C35.0447 4 43.999 12.9543 43.999 24ZM24.7161 18.7649C22.7708 19.574 18.8829 21.2486 13.0525 23.7889C12.1058 24.1654 11.6098 24.5337 11.5647 24.8938C11.4884 25.5025 12.2506 25.7422 13.2885 26.0685C13.4297 26.1129 13.576 26.1589 13.7259 26.2077C14.7471 26.5396 16.1208 26.9279 16.8349 26.9434C17.4826 26.9574 18.2056 26.6903 19.0038 26.1422C24.4513 22.465 27.2633 20.6063 27.4399 20.5663C27.5644 20.538 27.737 20.5025 27.854 20.6064C27.9709 20.7103 27.9594 20.9072 27.947 20.96C27.8715 21.2819 24.8796 24.0635 23.3313 25.5029C22.8486 25.9517 22.5062 26.27 22.4362 26.3427C22.2794 26.5056 22.1196 26.6596 21.966 26.8077C21.0173 27.7222 20.3059 28.408 22.0054 29.528C22.8221 30.0662 23.4756 30.5112 24.1276 30.9552C24.8397 31.4401 25.5499 31.9238 26.4687 32.5261C26.7028 32.6796 26.9264 32.839 27.1442 32.9942C27.9728 33.5849 28.7173 34.1157 29.637 34.031C30.1714 33.9819 30.7235 33.4793 31.0038 31.9806C31.6664 28.4386 32.9688 20.7641 33.2697 17.6016C33.2961 17.3245 33.2629 16.9699 33.2363 16.8143C33.2097 16.6586 33.154 16.4368 32.9517 16.2727C32.712 16.0782 32.3421 16.0372 32.1767 16.0401C31.4244 16.0534 30.2703 16.4547 24.7161 18.7649Z" fill="#39A6DA"/>
</svg>
