<svg width="71" height="46" viewBox="0 0 71 46" fill="none" xmlns="http://www.w3.org/2000/svg">
<rect width="71" height="38" rx="1" fill="#2B2B2B"/>
<path d="M11.976 22.172C14.6827 22.1533 16.9227 22.1067 18.696 22.032C18.5747 22.508 18.5 22.9653 18.472 23.404C18.444 23.8427 18.43 24.3747 18.43 25H8.56C8.63467 23.1893 8.672 21.4953 8.672 19.918C8.672 18.3407 8.63467 16.6467 8.56 14.836H11.976V22.172ZM24.0465 25.14C22.4505 25.14 21.2745 24.776 20.5185 24.048C19.7718 23.3107 19.3985 22.3447 19.3985 21.15C19.3985 19.9833 19.7718 19.036 20.5185 18.308C21.2745 17.58 22.4505 17.216 24.0465 17.216C25.1198 17.216 26.0158 17.3933 26.7345 17.748C27.4625 18.0933 27.9992 18.5647 28.3445 19.162C28.6898 19.75 28.8625 20.4127 28.8625 21.15C28.8625 22.354 28.4612 23.32 27.6585 24.048C26.8652 24.776 25.6612 25.14 24.0465 25.14ZM24.1025 22.76C24.7092 22.76 25.1618 22.6153 25.4605 22.326C25.7592 22.0367 25.9085 21.6493 25.9085 21.164C25.9085 20.7067 25.7592 20.3333 25.4605 20.044C25.1618 19.7453 24.7092 19.596 24.1025 19.596C23.4958 19.596 23.0525 19.7407 22.7725 20.03C22.4925 20.3193 22.3525 20.6973 22.3525 21.164C22.3525 21.6493 22.4925 22.0367 22.7725 22.326C23.0525 22.6153 23.4958 22.76 24.1025 22.76ZM33.0951 19.428C33.4871 18.0187 34.4624 17.314 36.0211 17.314C36.2918 17.314 36.5531 17.3327 36.8051 17.37L36.3571 20.506C35.6851 20.254 35.1344 20.128 34.7051 20.128C34.1731 20.128 33.7811 20.2867 33.5291 20.604C33.2771 20.9213 33.1511 21.346 33.1511 21.878V21.864L33.1371 22.788C33.1371 23.4507 33.1558 24.188 33.1931 25H29.8471C29.9218 23.656 29.9591 22.3867 29.9591 21.192C29.9591 19.9973 29.9218 18.7187 29.8471 17.356C30.4631 17.384 30.9344 17.398 31.2611 17.398C31.6064 17.398 32.0778 17.384 32.6751 17.356L33.0951 19.428ZM44.9094 21.5H40.3454C40.42 21.9107 40.602 22.2467 40.8914 22.508C41.19 22.76 41.61 22.886 42.1514 22.886C42.5434 22.886 42.912 22.8113 43.2574 22.662C43.6027 22.5033 43.878 22.284 44.0834 22.004C44.7087 22.312 45.5394 22.6433 46.5754 22.998C46.286 23.6513 45.7587 24.174 44.9934 24.566C44.2374 24.9487 43.248 25.14 42.0254 25.14C40.4387 25.14 39.2627 24.776 38.4974 24.048C37.7414 23.3107 37.3634 22.3447 37.3634 21.15C37.3634 19.9833 37.7414 19.036 38.4974 18.308C39.2534 17.58 40.4294 17.216 42.0254 17.216C42.9774 17.216 43.8034 17.3747 44.5034 17.692C45.2034 18.0093 45.74 18.4527 46.1134 19.022C46.4867 19.582 46.6734 20.226 46.6734 20.954C46.6734 21.1967 46.664 21.3787 46.6454 21.5H44.9094ZM42.2214 19.33C41.7547 19.33 41.372 19.4187 41.0734 19.596C40.7747 19.7733 40.5647 20.016 40.4434 20.324H43.7474C43.6354 20.0253 43.4534 19.7873 43.2014 19.61C42.9494 19.4233 42.6227 19.33 42.2214 19.33ZM58.4979 25C58.5726 23.7773 58.6099 22.5127 58.6099 21.206C58.6099 20.786 58.5026 20.4593 58.2879 20.226C58.0826 19.9833 57.8072 19.862 57.4619 19.862C57.1446 19.862 56.8692 20.002 56.6359 20.282C56.4119 20.562 56.2999 20.968 56.2999 21.5V21.486C56.2999 23.138 56.3232 24.3093 56.3699 25H53.2199C53.2759 23.628 53.3039 22.3633 53.3039 21.206C53.3039 20.7953 53.2012 20.4687 52.9959 20.226C52.7999 19.9833 52.5479 19.862 52.2399 19.862C51.9132 19.862 51.6379 20.002 51.4139 20.282C51.1992 20.5527 51.0732 20.926 51.0359 21.402C51.0172 22.1113 51.0079 22.6153 51.0079 22.914C51.0079 23.5487 51.0266 24.244 51.0639 25H47.7179C47.7926 23.656 47.8299 22.3867 47.8299 21.192C47.8299 19.9973 47.7926 18.7187 47.7179 17.356C48.3339 17.384 48.8052 17.398 49.1319 17.398C49.4772 17.398 49.9486 17.384 50.5459 17.356L50.9659 19.428C51.1806 18.672 51.5212 18.1167 51.9879 17.762C52.4546 17.398 52.9912 17.216 53.5979 17.216C54.3259 17.216 54.9186 17.4167 55.3759 17.818C55.8426 18.2193 56.1319 18.742 56.2439 19.386C56.4586 18.7233 56.8179 18.196 57.3219 17.804C57.8259 17.412 58.3999 17.216 59.0439 17.216C59.8839 17.216 60.5419 17.5007 61.0179 18.07C61.4939 18.63 61.7319 19.4 61.7319 20.38V22.704C61.7319 23.7587 61.7412 24.524 61.7599 25H58.4979Z" fill="white"/>
<path d="M30.5 38L35.5 44L40.5 38H30.5Z" fill="#2B2B2B"/>
</svg>
